<svg xmlns="http://www.w3.org/2000/svg" viewBox="0 0 100 100">
  <defs>
    <linearGradient id="grad" x1="0%" y1="0%" x2="100%" y2="100%">
      <stop offset="0%" style="stop-color:#6366f1"/>
      <stop offset="100%" style="stop-color:#8b5cf6"/>
    </linearGradient>
  </defs>
  <rect width="100" height="100" rx="20" fill="url(#grad)"/>
  <path d="M50 20L25 35v20c0 16.65 11.52 32.22 25 36 13.48-3.78 25-19.35 25-36V35L50 20zm0 6.54l20 11.67v15.46c0 12.54-8.26 24.26-20 27.54-11.74-3.28-20-15-20-27.54V37.21l20-10.67z" fill="white"/>
  <path d="M50 35l-10 10v10c0 8.28 5.52 16.36 10 18.62 4.48-2.26 10-10.34 10-18.62V45l-10-10z" fill="#6366f1"/>
</svg>